<svg width="267" height="277" viewBox="0 0 267 277" fill="none" xmlns="http://www.w3.org/2000/svg">
<path d="M60.6168 96.8518L50.4963 103.493L155.895 264.275L166.016 257.633L60.6168 96.8518Z" fill="#E6E6E6"/>
<path d="M36.5227 36.3453L59.9382 72.0646C60.3916 72.7563 60.5519 73.5999 60.3836 74.4098C60.2154 75.2197 59.7325 75.9296 59.0411 76.3832C58.3498 76.8369 57.5066 76.9972 56.6971 76.8289C55.8876 76.6606 55.1781 76.1774 54.7246 75.4857L27.8057 34.4221C24.1519 34.1169 20.4793 34.7203 17.1149 36.1788L46.4442 80.9193C46.8974 81.611 47.0574 82.4545 46.8891 83.2642C46.7207 84.0739 46.2379 84.7836 45.5466 85.2372C44.8554 85.6908 44.0124 85.8511 43.2031 85.683C42.3937 85.5148 41.6842 85.0319 41.2307 84.3405L11.9014 39.6C9.22386 42.1061 7.20735 45.2359 6.0314 48.7105L32.9503 89.7741C33.4034 90.4658 33.5634 91.3093 33.3951 92.119C33.2268 92.9287 32.7439 93.6384 32.0527 94.092C31.3615 94.5456 30.5185 94.7059 29.7091 94.5377C28.8998 94.3696 28.1903 93.8867 27.7367 93.1953L4.32127 57.476C3.71986 67.4354 6.96539 79.2399 14.0782 90.0903C27.2978 110.256 48.8614 119.486 62.2421 110.705C75.6227 101.925 75.7533 78.4594 62.5338 58.2936C55.4209 47.4433 45.8925 39.7616 36.5227 36.3453Z" fill="#E6E6E6"/>
<path d="M105.993 74.8564H93.8901V267.135H105.993V74.8564Z" fill="#E6E6E6"/>
<path d="M99.7582 87.3325C115.76 87.3325 128.732 67.7825 128.732 43.6662C128.732 19.55 115.76 0 99.7582 0C83.7564 0 70.7843 19.55 70.7843 43.6662C70.7843 67.7825 83.7564 87.3325 99.7582 87.3325Z" fill="#E6E6E6"/>
<path d="M99.7582 79.5941C112.924 79.5941 123.598 63.5086 123.598 43.6662C123.598 23.8238 112.924 7.73828 99.7582 7.73828C86.5922 7.73828 75.919 23.8238 75.919 43.6662C75.919 63.5086 86.5922 79.5941 99.7582 79.5941Z" fill="#CCCCCC"/>
<path d="M133.5 277C207.23 277 267 273.569 267 269.336C267 265.104 207.23 261.673 133.5 261.673C59.77 261.673 0 265.104 0 269.336C0 273.569 59.77 277 133.5 277Z" fill="#E6E6E6"/>
<path d="M212.451 269.224C162.421 260.201 111.181 260.201 61.1504 269.224C60.3557 269.368 59.539 269.336 58.7581 269.13C57.9771 268.923 57.251 268.548 56.6308 268.031C56.0106 267.513 55.5115 266.865 55.1687 266.134C54.8259 265.402 54.6478 264.604 54.647 263.796V195.214H218.955V263.796C218.954 264.604 218.776 265.402 218.433 266.134C218.09 266.865 217.591 267.513 216.971 268.031C216.351 268.548 215.624 268.923 214.844 269.13C214.063 269.336 213.246 269.368 212.451 269.224Z" fill="#EF5734"/>
<path d="M203.918 144.576C200.124 144.572 196.356 145.203 192.77 146.442C187.539 135.092 179.181 125.469 168.677 118.704C158.173 111.939 145.957 108.312 133.465 108.249C120.973 108.186 108.721 111.689 98.1491 118.348C87.5769 125.006 79.1222 134.543 73.7773 145.841C68.5143 144.363 62.9736 144.173 57.6218 145.286C52.27 146.399 47.264 148.783 43.0254 152.236C38.7868 155.69 35.4398 160.112 33.2663 165.13C31.0929 170.148 30.1566 175.615 30.5363 181.071C30.9161 186.526 32.6008 191.811 35.4485 196.479C38.2962 201.147 42.2235 205.062 46.8996 207.894C51.5757 210.727 56.8636 212.393 62.3179 212.753C67.7722 213.113 73.2332 212.157 78.2407 209.964C84.2594 219.14 92.48 226.661 102.152 231.84C111.824 237.019 122.638 239.691 133.608 239.612C144.577 239.533 155.352 236.706 164.949 231.388C174.545 226.07 182.657 218.432 188.543 209.17C193.141 211.492 198.206 212.743 203.356 212.827C208.507 212.912 213.61 211.828 218.282 209.657C222.954 207.486 227.074 204.285 230.333 200.294C233.592 196.302 235.905 191.624 237.098 186.61C238.292 181.596 238.334 176.377 237.224 171.345C236.113 166.312 233.877 161.596 230.685 157.552C227.492 153.507 223.425 150.238 218.789 147.991C214.153 145.744 209.069 144.576 203.918 144.576Z" fill="#EF5734"/>
<path d="M67.8503 173.931H67.1167C67.0917 164.16 69.2531 154.508 73.4423 145.682L74.1052 145.996C69.9626 154.724 67.8254 164.269 67.8503 173.931Z" fill="#3F3D56"/>
<path d="M199.15 173.931H198.416C198.439 164.492 196.399 155.161 192.44 146.593L193.106 146.286C197.11 154.95 199.173 164.385 199.15 173.931Z" fill="#3F3D56"/>
<path d="M54.7354 227.127L54.5585 226.415C54.7655 226.363 75.6117 221.241 106.161 218.699C134.358 216.353 176.831 215.788 219.044 226.415L218.865 227.127C176.755 216.526 134.375 217.089 106.238 219.429C75.7425 221.965 54.9419 227.076 54.7354 227.127Z" fill="#3F3D56"/>
<path d="M54.7354 237.035L54.5585 236.322C54.7655 236.271 75.6117 231.148 106.161 228.607C134.358 226.261 176.831 225.695 219.044 236.322L218.865 237.034C176.755 226.433 134.375 226.997 106.238 229.337C75.7425 231.873 54.9419 236.983 54.7354 237.035Z" fill="#3F3D56"/>
<path d="M54.7354 246.942L54.5585 246.23C54.7655 246.178 75.6117 241.056 106.161 238.514C134.358 236.168 176.831 235.603 219.044 246.23L218.865 246.942C176.755 236.341 134.375 236.905 106.238 239.244C75.7425 241.78 54.9419 246.891 54.7354 246.942Z" fill="#3F3D56"/>
<path d="M189.712 193.069L180.825 190.046L189.356 146.48L183.491 145.946C177.772 150.336 170.156 152.058 160.386 150.747L176.026 174.398L168.051 180.03L142.61 149.499C141.463 148.123 140.835 146.388 140.835 144.596C140.835 142.935 141.375 141.319 142.373 139.992C143.372 138.664 144.774 137.698 146.37 137.238L173.538 129.409L205.352 132.965C210.162 140.302 210.35 145.404 203.028 146.876L189.712 193.069Z" fill="#2F2E41"/>
<path d="M180.616 210.017C179.698 209.959 178.806 209.685 178.013 209.217C177.22 208.75 176.549 208.101 176.053 207.325C175.558 206.549 175.252 205.667 175.162 204.75C175.071 203.834 175.197 202.909 175.531 202.051L179.949 190.685C182.193 186.431 185.273 186.964 188.91 190.685L190.687 195.901C190.834 196.33 190.892 196.785 190.858 197.237C190.824 197.69 190.699 198.131 190.491 198.534L186.185 206.864C185.663 207.873 184.858 208.709 183.869 209.269C182.881 209.829 181.75 210.089 180.616 210.017Z" fill="#2F2E41"/>
<path d="M169.131 195.133C168.213 195.075 167.321 194.801 166.528 194.333C165.735 193.866 165.064 193.217 164.568 192.441C164.073 191.665 163.767 190.783 163.677 189.866C163.586 188.95 163.712 188.025 164.046 187.167L168.464 175.801C170.708 171.547 173.788 172.08 177.425 175.801L179.202 181.017C179.349 181.446 179.407 181.901 179.373 182.353C179.339 182.806 179.214 183.247 179.006 183.65L174.7 191.98C174.178 192.989 173.373 193.825 172.384 194.385C171.396 194.945 170.265 195.205 169.131 195.133Z" fill="#2F2E41"/>
<path d="M174.782 87.798C180.279 87.798 184.735 83.3397 184.735 77.8399C184.735 72.3402 180.279 67.8818 174.782 67.8818C169.285 67.8818 164.829 72.3402 164.829 77.8399C164.829 83.3397 169.285 87.798 174.782 87.798Z" fill="#FFB9B9"/>
<path d="M190.245 91.8881L176.56 99.0009L173.716 86.1975L183.136 80.3293L190.245 91.8881Z" fill="#FFB9B9"/>
<path d="M206.774 134.743C193.118 130.617 180.728 128.479 171.761 131.72C174.852 123.021 169.147 109.736 162.874 96.1557C165.581 92.6159 169.896 91.2448 174.782 90.6432C180.128 94.5271 183.856 92.0343 186.69 86.0198C192.872 85.7716 198.828 87.9616 204.642 91.7101C200.097 106.273 200.915 120.613 206.774 134.743Z" fill="#3F3D56"/>
<path d="M171.583 133.854C169.427 135.126 167.437 137.268 165.54 139.9C162.335 137.937 159.515 135.703 157.293 133.045C155.738 131.16 154.678 128.917 154.208 126.519C153.739 124.12 153.875 121.643 154.605 119.31L160.678 99.5609C161.183 97.9205 162.163 96.4671 163.494 95.3848L164.296 94.7332L172.294 109.848L164.296 124.785C165.31 127.506 168.299 130.649 171.583 133.854Z" fill="#3F3D56"/>
<path d="M174.336 148.912C173.611 149.243 172.819 149.4 172.022 149.372C171.226 149.343 170.447 149.13 169.747 148.748C169.048 148.367 168.446 147.827 167.991 147.173C167.535 146.519 167.238 145.768 167.123 144.979L165.801 135.925L170.422 133.435L176.287 141.116C176.755 141.73 177.08 142.441 177.236 143.197C177.392 143.954 177.375 144.735 177.188 145.484C177 146.233 176.647 146.93 176.153 147.524C175.659 148.117 175.038 148.592 174.336 148.912Z" fill="#FFB9B9"/>
<path d="M184.824 77.4041L183.125 77.4546L178.411 70.7736C172.371 71.3984 167.421 74.024 163.232 78.0458L162.808 75.2131C162.403 72.5118 163.048 69.7579 164.61 67.5179C166.173 65.2779 168.534 63.722 171.208 63.1704H171.208C172.612 62.8807 174.061 62.8771 175.466 63.1599C176.872 63.4427 178.207 64.006 179.39 64.8162C180.574 65.6265 181.582 66.667 182.355 67.8758C183.127 69.0845 183.649 70.4366 183.887 71.8513L184.824 77.4041Z" fill="#2F2E41"/>
<path d="M165.712 139.904C165.381 139.178 165.224 138.386 165.252 137.589C165.281 136.792 165.494 136.013 165.875 135.313C166.257 134.613 166.796 134.011 167.449 133.555C168.103 133.1 168.854 132.802 169.643 132.687L178.692 131.365L181.181 135.988L173.503 141.856C172.89 142.325 172.179 142.649 171.423 142.805C170.667 142.961 169.886 142.945 169.138 142.757C168.389 142.57 167.692 142.216 167.099 141.722C166.506 141.228 166.032 140.606 165.712 139.904Z" fill="#FFB9B9"/>
<path d="M208.498 131.668C199.889 132.337 190.488 135.023 180.647 138.833C180.525 135.91 179.466 133.105 177.626 130.831C186.564 128.476 194.674 125.712 199.665 121.406L196.644 98.6451L203.22 91.1765L204.354 91.7686C205.296 92.2584 206.125 92.9408 206.786 93.7717C207.448 94.6025 207.927 95.5632 208.194 96.5914C210.97 107.398 212.203 117.751 211.356 127.495C211.465 128.418 211.236 129.351 210.71 130.118C210.185 130.886 209.399 131.436 208.498 131.668Z" fill="#3F3D56"/>
<path d="M35.167 267.176C27.1598 272.186 19.1526 272.184 11.1453 267.169C10.8918 267.013 10.686 266.79 10.5501 266.525C10.4142 266.26 10.3536 265.963 10.3747 265.666L12.8732 233.169H33.0817L35.9362 265.655C35.9608 265.955 35.902 266.255 35.7662 266.524C35.6304 266.792 35.423 267.018 35.167 267.176Z" fill="#3F3D56"/>
<path d="M22.8842 237.213C28.5162 237.213 33.0817 235.567 33.0817 233.537C33.0817 231.507 28.5162 229.861 22.8842 229.861C17.2523 229.861 12.6868 231.507 12.6868 233.537C12.6868 235.567 17.2523 237.213 22.8842 237.213Z" fill="#3F3D56"/>
<path d="M30.8772 232.296C25.5634 236.036 20.4194 236.036 15.4452 232.296V226.414H30.8772V232.296Z" fill="#F4B51E"/>
<path d="M23.1612 229.355C27.4226 229.355 30.8772 228.038 30.8772 226.414C30.8772 224.79 27.4226 223.473 23.1612 223.473C18.8997 223.473 15.4452 224.79 15.4452 226.414C15.4452 228.038 18.8997 229.355 23.1612 229.355Z" fill="#F4B51E"/>
<path d="M23.5286 226.414C23.9344 226.414 24.2635 226.25 24.2635 226.047C24.2635 225.844 23.9344 225.679 23.5286 225.679C23.1227 225.679 22.7937 225.844 22.7937 226.047C22.7937 226.25 23.1227 226.414 23.5286 226.414Z" fill="#E6E6E6"/>
<path d="M26.9985 226.414C27.4044 226.414 27.7334 226.25 27.7334 226.047C27.7334 225.844 27.4044 225.679 26.9985 225.679C26.5927 225.679 26.2637 225.844 26.2637 226.047C26.2637 226.25 26.5927 226.414 26.9985 226.414Z" fill="#E6E6E6"/>
<path d="M25.2636 227.282C25.6694 227.282 25.9984 227.117 25.9984 226.914C25.9984 226.711 25.6694 226.547 25.2636 226.547C24.8577 226.547 24.5287 226.711 24.5287 226.914C24.5287 227.117 24.8577 227.282 25.2636 227.282Z" fill="#E6E6E6"/>
<path d="M18.3237 227.282C18.7295 227.282 19.0585 227.117 19.0585 226.914C19.0585 226.711 18.7295 226.547 18.3237 226.547C17.9178 226.547 17.5888 226.711 17.5888 226.914C17.5888 227.117 17.9178 227.282 18.3237 227.282Z" fill="#E6E6E6"/>
<path d="M20.0587 226.414C20.4645 226.414 20.7935 226.25 20.7935 226.047C20.7935 225.844 20.4645 225.679 20.0587 225.679C19.6528 225.679 19.3238 225.844 19.3238 226.047C19.3238 226.25 19.6528 226.414 20.0587 226.414Z" fill="#E6E6E6"/>
<path d="M21.7936 227.716C22.1995 227.716 22.5285 227.551 22.5285 227.348C22.5285 227.145 22.1995 226.981 21.7936 226.981C21.3878 226.981 21.0588 227.145 21.0588 227.348C21.0588 227.551 21.3878 227.716 21.7936 227.716Z" fill="#E6E6E6"/>
<path d="M257.056 267.176C249.048 272.186 241.041 272.184 233.034 267.169C232.781 267.013 232.575 266.79 232.439 266.525C232.303 266.26 232.242 265.963 232.263 265.666L234.762 233.169H254.97L257.825 265.655C257.85 265.955 257.791 266.255 257.655 266.524C257.519 266.792 257.312 267.018 257.056 267.176Z" fill="#3F3D56"/>
<path d="M244.773 237.213C250.405 237.213 254.97 235.567 254.97 233.537C254.97 231.507 250.405 229.861 244.773 229.861C239.141 229.861 234.575 231.507 234.575 233.537C234.575 235.567 239.141 237.213 244.773 237.213Z" fill="#3F3D56"/>
<path d="M252.766 232.296C247.452 236.036 242.308 236.036 237.334 232.296V226.414H252.766V232.296Z" fill="#F4B51E"/>
<path d="M245.05 229.355C249.311 229.355 252.766 228.038 252.766 226.414C252.766 224.79 249.311 223.473 245.05 223.473C240.788 223.473 237.334 224.79 237.334 226.414C237.334 228.038 240.788 229.355 245.05 229.355Z" fill="#F4B51E"/>
<path d="M245.417 226.414C245.823 226.414 246.152 226.25 246.152 226.047C246.152 225.844 245.823 225.679 245.417 225.679C245.011 225.679 244.682 225.844 244.682 226.047C244.682 226.25 245.011 226.414 245.417 226.414Z" fill="#E6E6E6"/>
<path d="M248.887 226.414C249.293 226.414 249.622 226.25 249.622 226.047C249.622 225.844 249.293 225.679 248.887 225.679C248.481 225.679 248.152 225.844 248.152 226.047C248.152 226.25 248.481 226.414 248.887 226.414Z" fill="#E6E6E6"/>
<path d="M247.152 227.282C247.558 227.282 247.887 227.117 247.887 226.914C247.887 226.711 247.558 226.547 247.152 226.547C246.746 226.547 246.417 226.711 246.417 226.914C246.417 227.117 246.746 227.282 247.152 227.282Z" fill="#E6E6E6"/>
<path d="M240.212 227.282C240.618 227.282 240.947 227.117 240.947 226.914C240.947 226.711 240.618 226.547 240.212 226.547C239.807 226.547 239.478 226.711 239.478 226.914C239.478 227.117 239.807 227.282 240.212 227.282Z" fill="#E6E6E6"/>
<path d="M241.947 226.414C242.353 226.414 242.682 226.25 242.682 226.047C242.682 225.844 242.353 225.679 241.947 225.679C241.542 225.679 241.213 225.844 241.213 226.047C241.213 226.25 241.542 226.414 241.947 226.414Z" fill="#E6E6E6"/>
<path d="M243.682 227.716C244.088 227.716 244.417 227.551 244.417 227.348C244.417 227.145 244.088 226.981 243.682 226.981C243.277 226.981 242.947 227.145 242.947 227.348C242.947 227.551 243.277 227.716 243.682 227.716Z" fill="#E6E6E6"/>
</svg>
